<svg width="45" height="45" viewBox="0 0 45 45" fill="none" xmlns="http://www.w3.org/2000/svg">
<path d="M9.375 9.84375C6.52729 9.84375 4.21875 12.1523 4.21875 15V30C4.21875 32.8477 6.52729 35.1562 9.375 35.1562H27.1875C30.0352 35.1562 32.3438 32.8477 32.3438 30V28.4139L38.8039 31.2851C39.2389 31.4784 39.7421 31.4385 40.1413 31.1792C40.5405 30.9197 40.7812 30.4761 40.7812 30V15C40.7812 14.524 40.5405 14.0803 40.1413 13.8209C39.7421 13.5615 39.2389 13.5216 38.8039 13.715L32.3438 16.5861V15C32.3438 12.1523 30.0352 9.84375 27.1875 9.84375H9.375Z" fill="#EDF5FD"/>
<path fill-rule="evenodd" clip-rule="evenodd" d="M18.75 15.4688C19.5266 15.4688 20.1562 16.0984 20.1562 16.875V28.125C20.1562 28.9016 19.5266 29.5312 18.75 29.5312C17.9734 29.5312 17.3438 28.9016 17.3438 28.125V16.875C17.3438 16.0984 17.9734 15.4688 18.75 15.4688Z" fill="#4C98FD"/>
<path fill-rule="evenodd" clip-rule="evenodd" d="M11.7188 22.5C11.7188 21.7234 12.3484 21.0938 13.125 21.0938H24.375C25.1516 21.0938 25.7812 21.7234 25.7812 22.5C25.7812 23.2766 25.1516 23.9062 24.375 23.9062H13.125C12.3484 23.9062 11.7188 23.2766 11.7188 22.5Z" fill="#4C98FD"/>
</svg>
