<svg width="14" height="13" viewBox="0 0 14 13" fill="none" xmlns="http://www.w3.org/2000/svg">
<path d="M8.06641 4.35763V4.22583C8.06431 4.12921 8.02202 4.0371 7.94842 3.96879C7.87481 3.90047 7.77558 3.86126 7.67153 3.85937H6.32846C6.22442 3.86126 6.12519 3.90047 6.05158 3.96879C5.97798 4.0371 5.93569 4.12921 5.93359 4.22583V4.35763C6.63889 4.24006 7.36111 4.24006 8.06641 4.35763ZM6.64453 3.00964V3.5039H7.35547V3.00964C7.12365 3.07458 6.87635 3.07458 6.64453 3.00964Z" fill="white"/>
<path d="M6.9999 2.70292C7.49118 2.70292 7.88945 2.3331 7.88945 1.87691C7.88945 1.42072 7.49118 1.0509 6.9999 1.0509C6.50862 1.0509 6.11035 1.42072 6.11035 1.87691C6.11035 2.3331 6.50862 2.70292 6.9999 2.70292Z" fill="white"/>
<path d="M10.5595 5.89043C9.90191 5.32732 9.09626 4.93487 8.22353 4.7525C8.21163 4.75114 8.1999 4.74874 8.18848 4.74534C7.40566 4.58465 6.59451 4.58456 5.81165 4.74508C5.80023 4.74838 5.78849 4.75066 5.7766 4.75189C4.90383 4.9345 4.09818 5.32717 3.44059 5.89045C2.54544 6.66179 2.03193 7.66795 1.98096 8.75975H12.0192C11.9682 7.66795 11.4547 6.66177 10.5595 5.89043Z" fill="white"/>
<path d="M11.0469 10.1055H2.95312V10.9688H11.0469V10.1055Z" fill="white"/>
<path d="M12.6875 9.11523H1.3125V9.75H12.6875V9.11523Z" fill="white"/>
<path d="M12.6875 11.3242H1.3125V11.959H12.6875V11.3242Z" fill="white"/>
</svg>
