<svg width="14" height="14" viewBox="0 0 14 14" fill="none" xmlns="http://www.w3.org/2000/svg">
<path fill-rule="evenodd" clip-rule="evenodd" d="M1.16675 6.99996C1.16675 3.77821 3.77833 1.16663 7.00008 1.16663C10.2218 1.16663 12.8334 3.77821 12.8334 6.99996C12.8334 10.2217 10.2218 12.8333 7.00008 12.8333C3.77833 12.8333 1.16675 10.2217 1.16675 6.99996ZM7.58342 4.66663C7.58342 4.51192 7.52196 4.36354 7.41256 4.25415C7.30316 4.14475 7.15479 4.08329 7.00008 4.08329C6.84537 4.08329 6.697 4.14475 6.5876 4.25415C6.47821 4.36354 6.41675 4.51192 6.41675 4.66663V7.58329C6.41675 7.738 6.47821 7.88638 6.5876 7.99577C6.697 8.10517 6.84537 8.16663 7.00008 8.16663C7.15479 8.16663 7.30316 8.10517 7.41256 7.99577C7.52196 7.88638 7.58342 7.738 7.58342 7.58329V4.66663ZM7.00008 8.74996C6.84537 8.74996 6.697 8.81142 6.5876 8.92081C6.47821 9.03021 6.41675 9.17858 6.41675 9.33329C6.41675 9.488 6.47821 9.63638 6.5876 9.74577C6.697 9.85517 6.84537 9.91663 7.00008 9.91663H7.00592C7.16062 9.91663 7.309 9.85517 7.41839 9.74577C7.52779 9.63638 7.58925 9.488 7.58925 9.33329C7.58925 9.17858 7.52779 9.03021 7.41839 8.92081C7.309 8.81142 7.16062 8.74996 7.00592 8.74996H7.00008Z" fill="white"/>
</svg>
