<svg width="17" height="17" viewBox="0 0 17 17" fill="none" xmlns="http://www.w3.org/2000/svg">
<g clip-path="url(#clip0_206_2472)">
<path d="M8.5 1.59375C7.13408 1.59375 5.79882 1.99879 4.6631 2.75766C3.52737 3.51653 2.64218 4.59514 2.11946 5.85709C1.59674 7.11904 1.45998 8.50766 1.72645 9.84734C1.99293 11.187 2.65069 12.4176 3.61655 13.3835C4.5824 14.3493 5.81298 15.0071 7.15266 15.2735C8.49234 15.54 9.88096 15.4033 11.1429 14.8805C12.4049 14.3578 13.4835 13.4726 14.2423 12.3369C15.0012 11.2012 15.4063 9.86593 15.4063 8.5C15.4041 6.669 14.6758 4.9136 13.3811 3.61888C12.0864 2.32417 10.331 1.59587 8.5 1.59375ZM8.49994 4.78125C8.65754 4.78125 8.81161 4.82799 8.94266 4.91555C9.0737 5.00311 9.17584 5.12756 9.23615 5.27317C9.29647 5.41878 9.31225 5.57901 9.2815 5.73359C9.25075 5.88817 9.17486 6.03016 9.06341 6.1416C8.95197 6.25305 8.80998 6.32894 8.6554 6.35969C8.50082 6.39044 8.3406 6.37465 8.19499 6.31434C8.04938 6.25403 7.92492 6.15189 7.83736 6.02084C7.7498 5.8898 7.70306 5.73573 7.70306 5.57812C7.70306 5.47348 7.72367 5.36985 7.76372 5.27317C7.80377 5.17649 7.86247 5.08865 7.93646 5.01465C8.01046 4.94065 8.09831 4.88195 8.19499 4.84191C8.29167 4.80186 8.39529 4.78125 8.49994 4.78125ZM9.03125 12.2188H8.5C8.43023 12.2188 8.36113 12.2051 8.29666 12.1784C8.23218 12.1517 8.1736 12.1126 8.12426 12.0632C8.07492 12.0139 8.03579 11.9553 8.00911 11.8908C7.98243 11.8264 7.96871 11.7573 7.96875 11.6875V8.5C7.82786 8.5 7.69273 8.44403 7.5931 8.3444C7.49347 8.24477 7.4375 8.10965 7.4375 7.96875C7.4375 7.82785 7.49347 7.69273 7.5931 7.5931C7.69273 7.49347 7.82786 7.4375 7.96875 7.4375H8.5C8.56978 7.43746 8.63888 7.45117 8.70335 7.47786C8.76782 7.50454 8.8264 7.54367 8.87574 7.59301C8.92508 7.64235 8.96421 7.70093 8.9909 7.7654C9.01758 7.82987 9.03129 7.89897 9.03125 7.96875V11.1562C9.17215 11.1562 9.30727 11.2122 9.4069 11.3118C9.50653 11.4115 9.5625 11.5466 9.5625 11.6875C9.5625 11.8284 9.50653 11.9635 9.4069 12.0632C9.30727 12.1628 9.17215 12.2188 9.03125 12.2188Z" fill="white"/>
</g>
<defs>
<clipPath id="clip0_206_2472">
<rect width="16.25" height="16.25" fill="white" transform="scale(1.04615)"/>
</clipPath>
</defs>
</svg>
