<svg width="14" height="14" viewBox="0 0 14 14" fill="none" xmlns="http://www.w3.org/2000/svg">
<path d="M11.0834 5.83337C11.5475 5.83337 11.9927 6.01775 12.3209 6.34594C12.649 6.67413 12.8334 7.11925 12.8334 7.58337V9.33337C12.8334 9.7975 12.649 10.2426 12.3209 10.5708C11.9927 10.899 11.5475 11.0834 11.0834 11.0834V11.6469C11.0834 12.2652 10.3624 12.603 9.88758 12.2069L8.53892 11.0834H7.00008C6.53595 11.0834 6.09083 10.899 5.76264 10.5708C5.43446 10.2426 5.25008 9.7975 5.25008 9.33337V7.58337C5.25008 7.11925 5.43446 6.67413 5.76264 6.34594C6.09083 6.01775 6.53595 5.83337 7.00008 5.83337H11.0834ZM9.33342 2.33337C9.79754 2.33337 10.2427 2.51775 10.5709 2.84594C10.899 3.17413 11.0834 3.61925 11.0834 4.08337V4.66671H6.41675C5.79791 4.66671 5.20442 4.91254 4.76683 5.35012C4.32925 5.78771 4.08342 6.3812 4.08342 7.00004V9.33337C4.08342 9.94237 4.31675 10.4977 4.69941 10.913L4.08342 11.375C3.60275 11.7355 2.91675 11.3925 2.91675 10.7917V9.91671C2.45262 9.91671 2.0075 9.73233 1.67931 9.40414C1.35112 9.07596 1.16675 8.63084 1.16675 8.16671V4.08337C1.16675 3.61925 1.35112 3.17413 1.67931 2.84594C2.0075 2.51775 2.45262 2.33337 2.91675 2.33337H9.33342Z" fill="white"/>
</svg>
