<svg width="14" height="14" viewBox="0 0 14 14" fill="none" xmlns="http://www.w3.org/2000/svg">
<g clip-path="url(#clip0_206_2492)">
<path d="M7.00003 0C5.61555 0 4.26217 0.410544 3.11102 1.17972C1.95987 1.94889 1.06266 3.04214 0.532848 4.32123C0.003033 5.60032 -0.135591 7.00779 0.134507 8.36566C0.404604 9.72354 1.07129 10.9708 2.05026 11.9498C3.02923 12.9288 4.27652 13.5955 5.63439 13.8655C6.99226 14.1356 8.39973 13.997 9.67882 13.4672C10.9579 12.9374 12.0512 12.0402 12.8203 10.889C13.5895 9.73788 14.0001 8.3845 14.0001 7.00003C13.9985 5.14398 13.2605 3.36439 11.9481 2.05197C10.6357 0.739541 8.85608 0.00154478 7.00003 0ZM7.0117 11.0834C6.93509 11.0838 6.85916 11.069 6.78824 11.0401C6.71732 11.0111 6.6528 10.9685 6.59836 10.9146C6.48842 10.8057 6.42622 10.6577 6.42544 10.503C6.42467 10.3482 6.48539 10.1996 6.59424 10.0896C6.70309 9.97968 6.85115 9.91748 7.00586 9.9167H7.0117C7.16641 9.9167 7.31478 9.97816 7.42418 10.0876C7.53357 10.197 7.59503 10.3453 7.59503 10.5C7.59503 10.6547 7.53357 10.8031 7.42418 10.9125C7.31478 11.0219 7.16641 11.0834 7.0117 11.0834ZM8.12587 7.29461C7.96974 7.36981 7.83687 7.48587 7.74136 7.63047C7.64585 7.77507 7.59125 7.94283 7.58336 8.11595C7.58423 8.27333 7.52385 8.42488 7.41498 8.53853C7.30611 8.65219 7.1573 8.71904 7.00003 8.72495C6.9248 8.72768 6.84978 8.7153 6.77942 8.68853C6.70906 8.66175 6.64478 8.62114 6.59039 8.56909C6.536 8.51704 6.49261 8.45461 6.46277 8.38549C6.43294 8.31638 6.41727 8.24198 6.41669 8.1667C6.41526 7.77621 6.52142 7.39287 6.72352 7.05875C6.92562 6.72463 7.21585 6.45263 7.56236 6.27261C7.77789 6.1539 7.95037 5.97009 8.05514 5.74745C8.15991 5.52482 8.19161 5.27475 8.1457 5.03302C8.10025 4.80272 7.98717 4.5912 7.82093 4.42547C7.65468 4.25974 7.4428 4.14733 7.21236 4.1026C7.04401 4.07144 6.87085 4.07771 6.70519 4.12098C6.53954 4.16425 6.38543 4.24345 6.25382 4.35296C6.1222 4.46248 6.0163 4.59961 5.94364 4.75465C5.87097 4.90968 5.83332 5.0788 5.83336 5.25002C5.83336 5.40473 5.7719 5.5531 5.6625 5.6625C5.55311 5.7719 5.40473 5.83335 5.25002 5.83335C5.09531 5.83335 4.94694 5.7719 4.83754 5.6625C4.72815 5.5531 4.66669 5.40473 4.66669 5.25002C4.66683 4.83848 4.77582 4.4343 4.98259 4.07848C5.18937 3.72266 5.48657 3.42785 5.84406 3.22397C6.20155 3.02009 6.6066 2.91438 7.01813 2.91757C7.42965 2.92077 7.83301 3.03274 8.1873 3.24214C8.54158 3.45155 8.83417 3.75093 9.0354 4.10991C9.23663 4.4689 9.33934 4.87472 9.3331 5.28621C9.32687 5.6977 9.21191 6.10023 8.99989 6.45295C8.78787 6.80567 8.48633 7.09604 8.12587 7.29461Z" fill="white"/>
</g>
<defs>
<clipPath id="clip0_206_2492">
<rect width="13.2" height="13.2" fill="white" transform="scale(1.06061)"/>
</clipPath>
</defs>
</svg>
