<svg width="17" height="17" viewBox="0 0 17 17" fill="none" xmlns="http://www.w3.org/2000/svg">
<path fill-rule="evenodd" clip-rule="evenodd" d="M6.49904 2.41546C6.49942 2.10342 6.62366 1.80429 6.84448 1.58381C7.06529 1.36333 7.3646 1.23953 7.67665 1.23963C7.74536 1.23963 7.81973 1.24529 7.898 1.26158C8.21463 1.32746 9.57781 1.64586 11.3695 2.57731C12.0881 2.95096 12.596 3.26263 12.9551 3.51338C13.3182 3.7666 13.5519 4.14875 13.5519 4.5819C13.5519 5.0154 13.3182 5.39754 12.9551 5.65113C12.596 5.90152 12.0881 6.21319 11.3695 6.58683C10.3563 7.11383 9.48006 7.44427 8.85319 7.64402C8.6089 7.72227 8.36202 7.7922 8.11298 7.85369C8.02845 7.87423 7.96222 7.88934 7.91429 7.89902V10.3513C8.38296 10.4759 8.81052 10.7218 9.15386 11.0643C9.49721 11.4067 9.74422 11.8337 9.87 12.302H12.3361C12.3456 12.0633 12.3594 11.859 12.3761 11.684C12.4143 11.2795 12.6283 10.931 12.9764 10.7476C13.3199 10.5666 13.7226 10.5825 14.075 10.7547C14.4792 10.9544 14.8729 11.1749 15.2544 11.4152C15.6348 11.6525 15.9238 11.8579 16.1444 12.0325C16.4536 12.2776 16.6456 12.6275 16.6456 13.0157C16.6456 13.4038 16.4536 13.7541 16.1444 13.9992C15.8596 14.2216 15.5625 14.4277 15.2544 14.6165C14.8729 14.8567 14.4792 15.077 14.075 15.2767C13.7226 15.4488 13.3196 15.4651 12.9764 15.2841C12.6283 15.1006 12.4143 14.7521 12.3761 14.3477C12.3568 14.1384 12.3433 13.9287 12.3357 13.7187H9.87071C9.71343 14.3049 9.36709 14.8229 8.8854 15.1922C8.40372 15.5615 7.81363 15.7615 7.20667 15.7612C6.59965 15.7615 6.00947 15.5616 5.52772 15.1923C5.04596 14.823 4.69956 14.305 4.54227 13.7187H1.06259C0.874723 13.7187 0.694556 13.6441 0.561718 13.5112C0.42888 13.3784 0.354252 13.1982 0.354252 13.0104C0.354252 12.8225 0.42888 12.6423 0.561718 12.5095C0.694556 12.3766 0.874723 12.302 1.06259 12.302H4.54227C4.66809 11.8336 4.91515 11.4067 5.25856 11.0642C5.60197 10.7217 6.0296 10.4758 6.49833 10.3513V6.5415C6.49833 6.52922 6.49857 6.51706 6.49904 6.50502V2.41546ZM5.8665 13.01C5.86687 12.8344 5.90182 12.6606 5.96936 12.4986C6.03689 12.3365 6.13568 12.1893 6.2601 12.0654C6.38451 11.9416 6.53211 11.8434 6.69446 11.7765C6.85681 11.7097 7.03074 11.6755 7.20631 11.6759C7.56084 11.6752 7.90112 11.8154 8.1523 12.0656C8.40349 12.3158 8.54502 12.6555 8.54577 13.01C8.54502 13.3645 8.40349 13.7042 8.1523 13.9544C7.90112 14.2046 7.56084 14.3448 7.20631 14.3441C7.03074 14.3445 6.85681 14.3103 6.69446 14.2435C6.53211 14.1766 6.38451 14.0784 6.2601 13.9546C6.13568 13.8307 6.03689 13.6835 5.96936 13.5214C5.90182 13.3594 5.86687 13.1856 5.8665 13.01Z" fill="white"/>
</svg>
