<svg width="17" height="17" viewBox="0 0 17 17" fill="none" xmlns="http://www.w3.org/2000/svg">
<path d="M6.21059 7.55307C6.30999 7.49568 6.39253 7.41313 6.4499 7.31372C6.50728 7.21432 6.53748 7.10155 6.53745 6.98677V1.10317C6.53687 0.998949 6.51137 0.896373 6.46309 0.804003C6.41481 0.711633 6.34514 0.632146 6.2599 0.572172C6.17465 0.512198 6.07631 0.473475 5.97306 0.459233C5.86981 0.444991 5.76465 0.455643 5.66635 0.4903C3.75825 1.16562 2.15361 2.49942 1.1409 4.25194C0.128183 6.00445 -0.226188 8.06074 0.141489 10.0511C0.160547 10.1541 0.204043 10.2509 0.268319 10.3335C0.332594 10.4162 0.415769 10.4821 0.510849 10.5259C0.596533 10.566 0.69001 10.5866 0.784599 10.5864C0.89934 10.5864 1.01207 10.5563 1.11147 10.499L6.21059 7.55307ZM5.22999 2.09358V6.60924L1.31739 8.86707C1.30759 8.74368 1.30759 8.61947 1.30759 8.49853C1.30875 7.17338 1.67555 5.87425 2.36761 4.74417C3.05967 3.6141 4.05015 2.6969 5.22999 2.09358ZM16.9972 8.49853C16.9978 10.3642 16.3845 12.1783 15.2519 13.6608C14.1192 15.1434 12.5302 16.212 10.73 16.7019C8.92972 17.1917 7.01831 17.0755 5.29064 16.3713C3.56297 15.667 2.11506 14.4138 1.1703 12.805C1.12626 12.7307 1.09738 12.6484 1.08534 12.5628C1.07329 12.4773 1.07832 12.3902 1.10013 12.3067C1.12193 12.2231 1.16009 12.1446 1.21239 12.0759C1.26469 12.0071 1.3301 11.9494 1.40483 11.9061L7.84492 8.15777V0.653733C7.84492 0.480352 7.91379 0.314073 8.03639 0.191474C8.15899 0.0688752 8.32527 0 8.49865 0C9.9817 0.000756707 11.4388 0.389408 12.7252 1.12737C14.0116 1.86533 15.0826 2.92693 15.8319 4.20677C15.8409 4.21985 15.8491 4.23292 15.8572 4.24681C15.8654 4.26071 15.8736 4.27705 15.8809 4.29176C16.6142 5.5724 16.9991 7.02283 16.9972 8.49853Z" fill="#EDF5FD"/>
</svg>
